<mxfile host="Electron" modified="2023-11-14T10:03:13.711Z" agent="Mozilla/5.0 (Windows NT 10.0; Win64; x64) AppleWebKit/537.36 (KHTML, like Gecko) draw.io/22.0.3 Chrome/114.0.5735.289 Electron/25.8.4 Safari/537.36" etag="QQMpY1avX-PMw0ZkOqLn" version="22.0.3" type="device">
  <diagram id="C5RBs43oDa-KdzZeNtuy" name="Page-1">
    <mxGraphModel dx="1036" dy="606" grid="1" gridSize="10" guides="1" tooltips="1" connect="1" arrows="1" fold="1" page="1" pageScale="1" pageWidth="827" pageHeight="1169" math="0" shadow="0">
      <root>
        <mxCell id="WIyWlLk6GJQsqaUBKTNV-0" />
        <mxCell id="WIyWlLk6GJQsqaUBKTNV-1" parent="WIyWlLk6GJQsqaUBKTNV-0" />
        <mxCell id="f8JBOBbZd5UXxtSbW8E3-2" style="edgeStyle=orthogonalEdgeStyle;rounded=0;orthogonalLoop=1;jettySize=auto;html=1;exitX=0.5;exitY=1;exitDx=0;exitDy=0;entryX=0.5;entryY=0;entryDx=0;entryDy=0;" edge="1" parent="WIyWlLk6GJQsqaUBKTNV-1" source="f8JBOBbZd5UXxtSbW8E3-0" target="f8JBOBbZd5UXxtSbW8E3-1">
          <mxGeometry relative="1" as="geometry" />
        </mxCell>
        <mxCell id="f8JBOBbZd5UXxtSbW8E3-0" value="start" style="ellipse;whiteSpace=wrap;html=1;" vertex="1" parent="WIyWlLk6GJQsqaUBKTNV-1">
          <mxGeometry x="340" y="20" width="120" height="80" as="geometry" />
        </mxCell>
        <mxCell id="f8JBOBbZd5UXxtSbW8E3-15" style="edgeStyle=orthogonalEdgeStyle;rounded=0;orthogonalLoop=1;jettySize=auto;html=1;exitX=0.5;exitY=1;exitDx=0;exitDy=0;entryX=0.5;entryY=0;entryDx=0;entryDy=0;" edge="1" parent="WIyWlLk6GJQsqaUBKTNV-1" source="f8JBOBbZd5UXxtSbW8E3-1" target="f8JBOBbZd5UXxtSbW8E3-14">
          <mxGeometry relative="1" as="geometry" />
        </mxCell>
        <mxCell id="f8JBOBbZd5UXxtSbW8E3-1" value="iYear,funds&lt;br&gt;month,count" style="shape=parallelogram;perimeter=parallelogramPerimeter;whiteSpace=wrap;html=1;fixedSize=1;" vertex="1" parent="WIyWlLk6GJQsqaUBKTNV-1">
          <mxGeometry x="340" y="140" width="120" height="60" as="geometry" />
        </mxCell>
        <mxCell id="f8JBOBbZd5UXxtSbW8E3-22" style="edgeStyle=orthogonalEdgeStyle;rounded=0;orthogonalLoop=1;jettySize=auto;html=1;exitX=0.5;exitY=1;exitDx=0;exitDy=0;" edge="1" parent="WIyWlLk6GJQsqaUBKTNV-1" source="f8JBOBbZd5UXxtSbW8E3-3" target="f8JBOBbZd5UXxtSbW8E3-5">
          <mxGeometry relative="1" as="geometry" />
        </mxCell>
        <mxCell id="f8JBOBbZd5UXxtSbW8E3-3" value="iMonth= iYear\12" style="rounded=0;whiteSpace=wrap;html=1;" vertex="1" parent="WIyWlLk6GJQsqaUBKTNV-1">
          <mxGeometry x="340" y="300" width="120" height="60" as="geometry" />
        </mxCell>
        <mxCell id="f8JBOBbZd5UXxtSbW8E3-21" style="edgeStyle=orthogonalEdgeStyle;rounded=0;orthogonalLoop=1;jettySize=auto;html=1;entryX=0.5;entryY=0;entryDx=0;entryDy=0;" edge="1" parent="WIyWlLk6GJQsqaUBKTNV-1" source="f8JBOBbZd5UXxtSbW8E3-5" target="f8JBOBbZd5UXxtSbW8E3-9">
          <mxGeometry relative="1" as="geometry" />
        </mxCell>
        <mxCell id="f8JBOBbZd5UXxtSbW8E3-27" style="edgeStyle=orthogonalEdgeStyle;rounded=0;orthogonalLoop=1;jettySize=auto;html=1;exitX=0;exitY=0.5;exitDx=0;exitDy=0;entryX=1;entryY=0.5;entryDx=0;entryDy=0;" edge="1" parent="WIyWlLk6GJQsqaUBKTNV-1" source="f8JBOBbZd5UXxtSbW8E3-5" target="f8JBOBbZd5UXxtSbW8E3-26">
          <mxGeometry relative="1" as="geometry" />
        </mxCell>
        <mxCell id="f8JBOBbZd5UXxtSbW8E3-5" value="count&amp;lt;month+1?" style="rhombus;whiteSpace=wrap;html=1;" vertex="1" parent="WIyWlLk6GJQsqaUBKTNV-1">
          <mxGeometry x="350" y="380" width="100" height="80" as="geometry" />
        </mxCell>
        <mxCell id="f8JBOBbZd5UXxtSbW8E3-19" style="edgeStyle=orthogonalEdgeStyle;rounded=0;orthogonalLoop=1;jettySize=auto;html=1;exitX=0.5;exitY=1;exitDx=0;exitDy=0;" edge="1" parent="WIyWlLk6GJQsqaUBKTNV-1" source="f8JBOBbZd5UXxtSbW8E3-9">
          <mxGeometry relative="1" as="geometry">
            <mxPoint x="400" y="610" as="targetPoint" />
          </mxGeometry>
        </mxCell>
        <mxCell id="f8JBOBbZd5UXxtSbW8E3-9" value="interest=iMonth*funds" style="rounded=0;whiteSpace=wrap;html=1;" vertex="1" parent="WIyWlLk6GJQsqaUBKTNV-1">
          <mxGeometry x="315" y="525" width="170" height="60" as="geometry" />
        </mxCell>
        <mxCell id="f8JBOBbZd5UXxtSbW8E3-23" style="edgeStyle=orthogonalEdgeStyle;rounded=0;orthogonalLoop=1;jettySize=auto;html=1;exitX=0.5;exitY=1;exitDx=0;exitDy=0;entryX=0.5;entryY=0;entryDx=0;entryDy=0;" edge="1" parent="WIyWlLk6GJQsqaUBKTNV-1" source="f8JBOBbZd5UXxtSbW8E3-14" target="f8JBOBbZd5UXxtSbW8E3-3">
          <mxGeometry relative="1" as="geometry" />
        </mxCell>
        <mxCell id="f8JBOBbZd5UXxtSbW8E3-14" value="count=1" style="rounded=0;whiteSpace=wrap;html=1;" vertex="1" parent="WIyWlLk6GJQsqaUBKTNV-1">
          <mxGeometry x="340" y="220" width="120" height="60" as="geometry" />
        </mxCell>
        <mxCell id="f8JBOBbZd5UXxtSbW8E3-31" style="edgeStyle=orthogonalEdgeStyle;rounded=0;orthogonalLoop=1;jettySize=auto;html=1;exitX=0.5;exitY=1;exitDx=0;exitDy=0;entryX=0.5;entryY=0;entryDx=0;entryDy=0;" edge="1" parent="WIyWlLk6GJQsqaUBKTNV-1" source="f8JBOBbZd5UXxtSbW8E3-20" target="f8JBOBbZd5UXxtSbW8E3-30">
          <mxGeometry relative="1" as="geometry" />
        </mxCell>
        <mxCell id="f8JBOBbZd5UXxtSbW8E3-20" value="mReceived=interest+funds" style="rounded=0;whiteSpace=wrap;html=1;" vertex="1" parent="WIyWlLk6GJQsqaUBKTNV-1">
          <mxGeometry x="280" y="610" width="240" height="60" as="geometry" />
        </mxCell>
        <mxCell id="f8JBOBbZd5UXxtSbW8E3-26" value="end" style="ellipse;whiteSpace=wrap;html=1;" vertex="1" parent="WIyWlLk6GJQsqaUBKTNV-1">
          <mxGeometry x="150" y="380" width="120" height="80" as="geometry" />
        </mxCell>
        <mxCell id="f8JBOBbZd5UXxtSbW8E3-28" value="false" style="text;html=1;align=center;verticalAlign=middle;resizable=0;points=[];autosize=1;strokeColor=none;fillColor=none;" vertex="1" parent="WIyWlLk6GJQsqaUBKTNV-1">
          <mxGeometry x="285" y="388" width="50" height="30" as="geometry" />
        </mxCell>
        <mxCell id="f8JBOBbZd5UXxtSbW8E3-29" value="true" style="text;html=1;align=center;verticalAlign=middle;resizable=0;points=[];autosize=1;strokeColor=none;fillColor=none;" vertex="1" parent="WIyWlLk6GJQsqaUBKTNV-1">
          <mxGeometry x="390" y="478" width="40" height="30" as="geometry" />
        </mxCell>
        <mxCell id="f8JBOBbZd5UXxtSbW8E3-32" style="edgeStyle=orthogonalEdgeStyle;rounded=0;orthogonalLoop=1;jettySize=auto;html=1;exitX=1;exitY=0.5;exitDx=0;exitDy=0;entryX=1;entryY=0.5;entryDx=0;entryDy=0;" edge="1" parent="WIyWlLk6GJQsqaUBKTNV-1" source="f8JBOBbZd5UXxtSbW8E3-30" target="f8JBOBbZd5UXxtSbW8E3-5">
          <mxGeometry relative="1" as="geometry">
            <mxPoint x="580" y="730" as="targetPoint" />
            <Array as="points">
              <mxPoint x="580" y="730" />
              <mxPoint x="580" y="420" />
            </Array>
          </mxGeometry>
        </mxCell>
        <mxCell id="f8JBOBbZd5UXxtSbW8E3-30" value="tăng count lên 1" style="rounded=0;whiteSpace=wrap;html=1;" vertex="1" parent="WIyWlLk6GJQsqaUBKTNV-1">
          <mxGeometry x="340" y="700" width="120" height="60" as="geometry" />
        </mxCell>
      </root>
    </mxGraphModel>
  </diagram>
</mxfile>
